<?xml version="1.0" standalone="no"?>
<!DOCTYPE svg PUBLIC "-//W3C//DTD SVG 20010904//EN"
 "http://www.w3.org/TR/2001/REC-SVG-20010904/DTD/svg10.dtd">
<svg version="1.0" xmlns="http://www.w3.org/2000/svg"
 width="225.000000pt" height="225.000000pt" viewBox="0 0 225.000000 225.000000"
 preserveAspectRatio="xMidYMid meet">

<g transform="translate(0.000000,225.000000) scale(0.100000,-0.100000)"
fill="#000000" stroke="none">
<path d="M750 1714 c-107 -86 -203 -162 -214 -169 -17 -13 -15 -18 38 -91 31
-42 56 -80 56 -85 0 -5 -12 -16 -27 -26 -16 -9 -69 -47 -119 -84 l-92 -67 -31
49 c-39 59 -96 107 -176 146 -60 30 -162 60 -171 50 -3 -3 8 -31 24 -64 62
-123 77 -192 77 -363 -1 -143 -3 -161 -28 -235 -16 -44 -41 -104 -58 -132
l-29 -52 33 6 c138 25 276 112 334 210 13 23 27 43 29 43 3 0 39 -26 82 -59
42 -32 100 -73 129 -90 49 -30 52 -34 46 -64 -5 -27 -54 -177 -79 -241 -7 -18
-3 -19 72 -12 139 11 325 67 374 111 13 11 25 11 80 -3 48 -12 109 -16 235
-16 187 0 290 18 425 74 249 103 425 324 480 603 14 70 13 72 -103 158 -195
146 -433 239 -686 270 l-103 12 -56 60 c-88 92 -280 218 -330 216 -9 0 -105
-70 -212 -155z m1132 -433 c52 -33 88 -96 88 -156 0 -130 -142 -222 -263 -171
-57 23 -117 111 -117 171 0 59 59 147 115 171 54 24 125 18 177 -15z"/>
<path d="M1719 1191 c-21 -22 -29 -39 -29 -66 0 -27 8 -44 29 -66 33 -32 67
-37 110 -14 33 16 41 33 41 80 0 47 -8 64 -41 80 -43 23 -77 18 -110 -14z"/>
</g>
</svg>
